<svg id="Camada_1" data-name="Camada 1" xmlns="http://www.w3.org/2000/svg" xmlns:xlink="http://www.w3.org/1999/xlink" viewBox="0 0 1337 200.92"><defs><style>.cls-1{fill:#383c44;}.cls-2{fill:url(#linear-gradient);}.cls-3{fill:url(#linear-gradient-2);}</style><linearGradient id="linear-gradient" x1="579.24" y1="178.72" x2="705.14" y2="178.72" gradientUnits="userSpaceOnUse"><stop offset="0" stop-color="#e8a327"/><stop offset="1" stop-color="#dd5313"/></linearGradient><linearGradient id="linear-gradient-2" x1="571.52" y1="116.79" x2="770.75" y2="116.79" xlink:href="#linear-gradient"/></defs><title>logo</title><path class="cls-1" d="M179.27,86v-.52c0-18.79-6.07-34.79-17.54-46.26-13.33-13.33-33.26-20.38-57.62-20.38H41.38A26.6,26.6,0,0,0,14.5,45.75V188.25a26.59,26.59,0,0,0,26.88,26.88,26.6,26.6,0,0,0,26.88-26.88v-32.5H89.62l36.6,46.36c6.85,8.76,15.07,13,25.14,13a25.34,25.34,0,0,0,25.85-25.33c0-8.75-4-14.5-8.05-19.68l-22-26.68C168.2,131.71,179.27,111.94,179.27,86ZM125,87.57v.52c0,11.79-8.55,18.55-23.46,18.55H68.27V68.76h32.49C116.84,68.76,125,75.09,125,87.57Z" transform="translate(-14.5 -16.54)"/><path class="cls-1" d="M934.47,17.44a26.6,26.6,0,0,0-26.88,26.88v85.19c0,24.13-10.76,36.37-32,36.37s-32-12.67-32-37.66V44.33a26.88,26.88,0,1,0-53.77,0v84.94c0,55.48,31.06,87.29,85.23,87.29,54.82,0,86.26-32.29,86.26-88.58V44.33A26.6,26.6,0,0,0,934.47,17.44Z" transform="translate(-14.5 -16.54)"/><path class="cls-1" d="M1120.08,18.86H1003.91a25.33,25.33,0,0,0,0,50.67h31.2V188.25a26.88,26.88,0,0,0,53.77,0V69.53h31.2a25.33,25.33,0,1,0,0-50.67Z" transform="translate(-14.5 -16.54)"/><path class="cls-1" d="M546.19,18.86H430a25.33,25.33,0,0,0,0,50.67h31.2V188.25a26.88,26.88,0,0,0,53.77,0V69.53h31.2a25.33,25.33,0,0,0,0-50.67Z" transform="translate(-14.5 -16.54)"/><path class="cls-1" d="M300.89,16.54C243,16.54,197.59,60.67,197.59,117v.52c0,57,44.19,99.94,102.78,99.94,57.93,0,103.3-44.13,103.3-100.46v-.52C403.67,59.51,359.48,16.54,300.89,16.54Zm47.21,101c0,28.09-20.3,49.27-47.21,49.27-27.21,0-47.73-21.41-47.73-49.79v-.52c0-28.09,20.3-49.28,47.21-49.28,27.21,0,47.73,21.41,47.73,49.79Z" transform="translate(-14.5 -16.54)"/><path class="cls-1" d="M1248.71,16.54c-57.92,0-103.3,44.13-103.3,100.46v.52c0,57,44.19,99.94,102.78,99.94,57.93,0,103.3-44.13,103.3-100.46v-.52C1351.5,59.51,1307.31,16.54,1248.71,16.54Zm47.21,101c0,28.09-20.3,49.27-47.21,49.27-27.21,0-47.73-21.41-47.73-49.79v-.52c0-28.09,20.3-49.28,47.21-49.28,27.21,0,47.73,21.41,47.73,49.79Z" transform="translate(-14.5 -16.54)"/><path class="cls-2" d="M705.14,156.48a2,2,0,0,0-3.24-1.57l-.93.73c-6.42,5.09-12.59,8-19.41,9.29A62.47,62.47,0,0,1,670.34,166a46.21,46.21,0,0,1-24.58-6.73,48.88,48.88,0,0,1-16.21-15.88l-1-1.56a2,2,0,0,0-3.43.12,31.49,31.49,0,0,1-42.86,12,2,2,0,0,0-2.84,2.53l.58,1.32c15.49,35.13,52.36,58.73,91.76,58.73a101.06,101.06,0,0,0,31.69-5.3,2,2,0,0,0,1.4-1.75C705.06,206.26,705.14,156.48,705.14,156.48Z" transform="translate(-14.5 -16.54)"/><path class="cls-3" d="M770.75,116.38h-.26C769,71,740.78,33.87,698.16,21.43a98.26,98.26,0,0,0-27.51-3.95c-52.43,0-95.94,40.69-99.05,92.64-.83,13.77,5.08,24,16.19,28.1A24.87,24.87,0,0,0,620.6,121a59.16,59.16,0,0,0,1.44-8.15c.12-.91.24-1.82.38-2.72,3.87-24.5,24.24-42.28,48.45-42.28,1.22,0,2.44,0,3.66.13,25.24,1.81,44.8,22.63,45.5,48.44v67.9h0c0,3.13.11,5.48.16,7.1.43,13.65,9.27,23.3,22.35,24.56,1,.09,1.93.14,2.88.14a23.9,23.9,0,0,0,23.26-16.56,44.33,44.33,0,0,0,2.08-13.75v-1.49h0Z" transform="translate(-14.5 -16.54)"/></svg>